<?xml version="1.0" encoding="UTF-8" standalone="no"?>
<!-- Created with Inkscape (http://www.inkscape.org/) -->

<svg
   width="1600"
   height="900"
   id="svg2"
   version="1.1"
   inkscape:version="1.2.1 (9c6d41e410, 2022-07-14, custom)"
   sodipodi:docname="tesseroids-banner.svg"
   inkscape:export-filename="banner.png"
   inkscape:export-xdpi="84.666672"
   inkscape:export-ydpi="84.666672"
   xmlns:inkscape="http://www.inkscape.org/namespaces/inkscape"
   xmlns:sodipodi="http://sodipodi.sourceforge.net/DTD/sodipodi-0.dtd"
   xmlns="http://www.w3.org/2000/svg"
   xmlns:svg="http://www.w3.org/2000/svg"
   xmlns:rdf="http://www.w3.org/1999/02/22-rdf-syntax-ns#"
   xmlns:cc="http://creativecommons.org/ns#"
   xmlns:dc="http://purl.org/dc/elements/1.1/">
  <defs
     id="defs4" />
  <sodipodi:namedview
     id="base"
     pagecolor="#ffffff"
     bordercolor="#666666"
     borderopacity="1.0"
     inkscape:pageopacity="0"
     inkscape:pageshadow="2"
     inkscape:zoom="0.49497475"
     inkscape:cx="436.3859"
     inkscape:cy="120.20815"
     inkscape:document-units="px"
     inkscape:current-layer="layer1"
     showgrid="false"
     units="cm"
     inkscape:window-width="1920"
     inkscape:window-height="1080"
     inkscape:window-x="1600"
     inkscape:window-y="0"
     inkscape:window-maximized="1"
     inkscape:showpageshadow="2"
     inkscape:pagecheckerboard="0"
     inkscape:deskcolor="#d1d1d1" />
  <metadata
     id="metadata7">
    <rdf:RDF>
      <cc:Work
         rdf:about="">
        <dc:format>image/svg+xml</dc:format>
        <dc:type
           rdf:resource="http://purl.org/dc/dcmitype/StillImage" />
      </cc:Work>
    </rdf:RDF>
  </metadata>
  <g
     inkscape:label="Layer 1"
     inkscape:groupmode="layer"
     id="layer1"
     transform="translate(0,-946.06164)">
    <g
       id="g381"
       transform="matrix(10,0,0,10,334.84796,-8518.0545)">
      <g
         transform="matrix(1.4563576,0,0,1.4088139,-116.18066,339.92471)"
         id="g3076">
        <path
           style="fill:#d40000"
           d="m 90.250359,464.11034 c -4.882519,0 -9.102257,4.27648 -9.102257,8.82463 0,0.88246 0.697303,3.47028 2.696076,5.31422 2.952951,2.7242 3.920072,3.12675 5.1596,2.14761 1.037682,-0.8197 1.743156,-0.86972 2.206303,-0.15645 1.015156,1.56341 5.862685,0.93323 7.758353,-0.55914 0.987501,-0.77741 2.933396,-3.53932 3.040206,-5.79173 0.17186,-3.62386 -0.13671,-5.43642 -3.797644,-7.6948 -3.183431,-2.07328 -5.89073,-2.19297 -7.960637,-2.08434 z"
           id="path3068"
           inkscape:connector-curvature="0"
           sodipodi:nodetypes="csssssscc" />
        <path
           inkscape:connector-curvature="0"
           style="fill:#5aa02c"
           d="m 95.109885,462.69907 c 0.47005,0.29051 1.89849,-0.58293 3.17431,-1.94098 l 2.319685,-2.46918 h -3.019335 c -2.98179,0 -6.013627,3.62717 -6.013627,5.90203"
           id="path3059" />
        <path
           sodipodi:nodetypes="ssss"
           style="fill:#ffffff"
           d="m 83.42422,473.87676 c -0.636729,-1.17961 -0.584363,-2.53169 0.168656,-4.03977 1.159619,-2.32238 2.157527,-1.26698 2.157527,1.80108 0,3.49169 -0.934033,4.8178 -2.326183,2.23869 z"
           id="path3057"
           inkscape:connector-curvature="0" />
      </g>
      <path
         inkscape:connector-curvature="0"
         id="path3008"
         d="m 21.621824,975.39112 c -0.210996,-1.64836 0.247474,-3.32543 -0.08517,-4.96262 -0.457475,-1.15982 -0.979564,0.48993 -1.209176,0.97309 -1.195192,2.83351 -1.305703,6.37718 0.590282,8.93874 0.59572,1.03023 0.709269,-0.80948 0.716455,-1.29257 0.03811,-1.21882 -0.126394,-2.43984 -0.0124,-3.65664 z m -6.15913,7.89849 c 0.855347,-3.15083 2.17377,-6.3732 1.573986,-9.69649 -0.02143,-1.54186 0.316645,-3.15901 -0.241742,-4.64109 -0.247778,-0.67119 -1.122842,-0.67019 -1.043669,0.14593 -0.641732,2.66664 0.02529,5.4151 -0.287549,8.11034 0.258486,1.42966 -0.620931,2.72584 -1.11523,4.00495 -0.320578,0.8156 -0.82644,1.91428 -0.103571,2.66391 0.348376,0.33707 1.080451,0.68271 1.155707,-0.0149 0.02069,-0.19088 0.04131,-0.38184 0.06208,-0.57269 z m -5.091548,5.07674 c 1.356429,-4.37237 0.833158,-8.9969 0.949122,-13.49876 -0.0767,-1.35153 -0.261032,-2.7735 -0.977824,-3.94876 -0.414829,-0.69169 -1.175433,-0.19914 -0.921553,0.5056 -0.248985,5.97304 -0.0579,11.95152 -0.07629,17.92703 0.359997,-0.30934 0.687482,-0.65358 1.026513,-0.98511 z"
         style="fill:#b3b3b3;stroke-width:0.821217" />
      <g
         style="fill:#1a1a1a"
         id="g3071"
         transform="matrix(0.84449989,0,0,0.82824908,-82.662476,642.9473)">
        <path
           style="fill:#1a1a1a"
           d="m 163.08283,474.89258 c 0.36667,-0.36666 0,-21.05833 0,-45.16667 v -43.83333 h 22.20288 20.96379 v -9.75 -9.75 h -53 -53.57195 v 9.7304 9.7696 h 21.78597 22.30678 v 44.75 44.25 h 9.32293 c 5.12762,0 9.62294,0.36667 9.9896,0 z"
           id="path3061"
           inkscape:connector-curvature="0"
           sodipodi:nodetypes="sscccccccccccccss" />
      </g>
    </g>
    <flowRoot
       xml:space="preserve"
       id="flowRoot3000"
       style="font-style:normal;font-variant:normal;font-weight:normal;font-stretch:normal;line-height:0.01%;font-family:Arial;-inkscape-font-specification:Arial;letter-spacing:0px;word-spacing:0px;fill:#000000;fill-opacity:1;stroke:none"><flowRegion
         id="flowRegion3002"><rect
           id="rect3004"
           width="0"
           height="11.428572"
           x="660"
           y="592.36218" /></flowRegion><flowPara
         id="flowPara3006"
         style="font-size:11px;line-height:1.25"> </flowPara></flowRoot>
  </g>
</svg>
